<?xml version="1.0" encoding="UTF-8"?>
<svg xmlns="http://www.w3.org/2000/svg" xmlns:xlink="http://www.w3.org/1999/xlink" width="24" height="24" viewBox="0 0 24 24">
<defs>
<filter id="filter-remove-color" x="0%" y="0%" width="100%" height="100%">
<feColorMatrix color-interpolation-filters="sRGB" values="0 0 0 0 1 0 0 0 0 1 0 0 0 0 1 0 0 0 1 0" />
</filter>
<clipPath id="clip-0">
<rect x="0" y="0" width="24" height="24"/>
</clipPath>
<g id="source-7" clip-path="url(#clip-0)">
<path fill-rule="nonzero" fill="rgb(0%, 0%, 0%)" fill-opacity="1" d="M 6 12.5 C 6 9.1875 8.6875 6.5 12 6.5 C 15.3125 6.5 18 9.1875 18 12.5 C 18 15.8125 15.3125 18.5 12 18.5 C 8.6875 18.5 6 15.8125 6 12.5 Z M 6 12.5 "/>
</g>
<mask id="mask-0">
<g filter="url(#filter-remove-color)">
<use xlink:href="#source-7"/>
</g>
</mask>
<clipPath id="clip-1">
<path clip-rule="nonzero" d="M 0.992188 0.335938 L 9.023438 0.335938 L 9.023438 8.019531 L 0.992188 8.019531 Z M 0.992188 0.335938 "/>
</clipPath>
<clipPath id="clip-2">
<rect x="0" y="0" width="10" height="9"/>
</clipPath>
<g id="source-6" clip-path="url(#clip-2)">
<g clip-path="url(#clip-1)">
<path fill-rule="evenodd" fill="rgb(0%, 0%, 0%)" fill-opacity="1" d="M 4.792969 6.84375 L 2.984375 7.949219 C 2.796875 8.066406 2.550781 8.007812 2.4375 7.816406 C 2.382812 7.726562 2.363281 7.617188 2.390625 7.511719 L 2.671875 6.410156 C 2.773438 6.011719 3.042969 5.679688 3.414062 5.503906 L 5.386719 4.554688 C 5.476562 4.511719 5.515625 4.402344 5.472656 4.308594 C 5.4375 4.234375 5.355469 4.195312 5.273438 4.207031 L 3.078125 4.589844 C 2.632812 4.664062 2.175781 4.542969 1.828125 4.25 L 1.136719 3.671875 C 0.964844 3.527344 0.945312 3.277344 1.085938 3.109375 C 1.152344 3.027344 1.253906 2.976562 1.359375 2.964844 L 3.476562 2.800781 C 3.628906 2.789062 3.757812 2.695312 3.816406 2.554688 L 4.632812 0.582031 C 4.71875 0.378906 4.949219 0.28125 5.15625 0.367188 C 5.253906 0.40625 5.328125 0.484375 5.371094 0.582031 L 6.1875 2.554688 C 6.246094 2.695312 6.375 2.789062 6.523438 2.800781 L 8.65625 2.96875 C 8.875 2.984375 9.039062 3.175781 9.019531 3.398438 C 9.011719 3.503906 8.964844 3.601562 8.882812 3.667969 L 7.257812 5.054688 C 7.144531 5.152344 7.09375 5.304688 7.128906 5.449219 L 7.628906 7.527344 C 7.679688 7.738281 7.546875 7.957031 7.332031 8.007812 C 7.230469 8.03125 7.121094 8.015625 7.03125 7.960938 L 5.210938 6.84375 C 5.082031 6.765625 4.921875 6.765625 4.792969 6.84375 Z M 4.792969 6.84375 "/>
</g>
</g>
</defs>
<path fill-rule="nonzero" fill="rgb(0%, 0%, 0%)" fill-opacity="1" d="M 5.664062 12 C 5.664062 11.632812 5.367188 11.335938 5 11.335938 C 4.632812 11.335938 4.335938 11.632812 4.335938 12 Z M 19.664062 12 C 19.664062 11.632812 19.367188 11.335938 19 11.335938 C 18.632812 11.335938 18.335938 11.632812 18.335938 12 Z M 6.09375 19.78125 L 6.394531 19.191406 Z M 17.90625 19.78125 L 17.605469 19.191406 Z M 18.78125 18.90625 L 18.191406 18.605469 Z M 15.800781 19.335938 L 8.199219 19.335938 L 8.199219 20.664062 L 15.800781 20.664062 Z M 5.664062 16.800781 L 5.664062 12 L 4.335938 12 L 4.335938 16.800781 Z M 18.335938 12 L 18.335938 16.800781 L 19.664062 16.800781 L 19.664062 12 Z M 8.199219 19.335938 C 7.628906 19.335938 7.242188 19.335938 6.941406 19.308594 C 6.648438 19.285156 6.5 19.242188 6.394531 19.191406 L 5.789062 20.375 C 6.113281 20.539062 6.457031 20.605469 6.832031 20.636719 C 7.199219 20.664062 7.652344 20.664062 8.199219 20.664062 Z M 4.335938 16.800781 C 4.335938 17.347656 4.335938 17.800781 4.363281 18.167969 C 4.394531 18.542969 4.460938 18.886719 4.625 19.210938 L 5.808594 18.605469 C 5.757812 18.5 5.714844 18.351562 5.691406 18.058594 C 5.664062 17.757812 5.664062 17.371094 5.664062 16.800781 Z M 6.394531 19.191406 C 6.144531 19.0625 5.9375 18.855469 5.808594 18.605469 L 4.625 19.210938 C 4.882812 19.710938 5.289062 20.117188 5.789062 20.375 Z M 15.800781 20.664062 C 16.347656 20.664062 16.800781 20.664062 17.167969 20.636719 C 17.542969 20.605469 17.886719 20.539062 18.210938 20.375 L 17.605469 19.191406 C 17.5 19.242188 17.351562 19.285156 17.058594 19.308594 C 16.757812 19.335938 16.371094 19.335938 15.800781 19.335938 Z M 18.335938 16.800781 C 18.335938 17.371094 18.335938 17.757812 18.308594 18.058594 C 18.285156 18.351562 18.242188 18.5 18.191406 18.605469 L 19.375 19.210938 C 19.539062 18.886719 19.605469 18.542969 19.636719 18.167969 C 19.664062 17.800781 19.664062 17.347656 19.664062 16.800781 Z M 18.210938 20.375 C 18.710938 20.117188 19.117188 19.710938 19.375 19.210938 L 18.191406 18.605469 C 18.0625 18.855469 17.855469 19.0625 17.605469 19.191406 Z M 18.210938 20.375 "/>
<path fill-rule="nonzero" fill="rgb(0%, 0%, 0%)" fill-opacity="1" d="M 6 12.164062 C 6.367188 12.164062 6.664062 11.867188 6.664062 11.5 C 6.664062 11.132812 6.367188 10.835938 6 10.835938 Z M 18 10.835938 C 17.632812 10.835938 17.335938 11.132812 17.335938 11.5 C 17.335938 11.867188 17.632812 12.164062 18 12.164062 Z M 4.113281 10.8125 L 4.714844 10.527344 Z M 4.6875 11.386719 L 4.402344 11.984375 Z M 19.886719 10.8125 L 20.484375 11.097656 Z M 19.3125 11.386719 L 19.597656 11.984375 Z M 18.855469 6.691406 L 19.140625 6.089844 Z M 19.808594 7.644531 L 19.207031 7.929688 Z M 7.125 7.164062 L 16.875 7.164062 L 16.875 5.835938 L 7.125 5.835938 Z M 5.875 12.164062 L 6 12.164062 L 6 10.835938 L 5.875 10.835938 Z M 18.125 10.835938 L 18 10.835938 L 18 12.164062 L 18.125 12.164062 Z M 3.335938 9.625 C 3.335938 9.929688 3.335938 10.195312 3.351562 10.414062 C 3.367188 10.640625 3.40625 10.871094 3.515625 11.097656 L 4.714844 10.527344 C 4.707031 10.511719 4.6875 10.460938 4.675781 10.3125 C 4.664062 10.15625 4.664062 9.949219 4.664062 9.625 Z M 5.875 10.835938 C 5.550781 10.835938 5.34375 10.835938 5.1875 10.824219 C 5.039062 10.8125 4.988281 10.792969 4.972656 10.785156 L 4.402344 11.984375 C 4.628906 12.09375 4.859375 12.132812 5.085938 12.148438 C 5.304688 12.164062 5.570312 12.164062 5.875 12.164062 Z M 3.515625 11.097656 C 3.699219 11.488281 4.011719 11.800781 4.402344 11.984375 L 4.972656 10.785156 C 4.859375 10.730469 4.769531 10.640625 4.714844 10.527344 Z M 19.335938 9.625 C 19.335938 9.949219 19.335938 10.15625 19.324219 10.3125 C 19.3125 10.460938 19.292969 10.511719 19.285156 10.527344 L 20.484375 11.097656 C 20.59375 10.871094 20.632812 10.640625 20.648438 10.414062 C 20.664062 10.195312 20.664062 9.929688 20.664062 9.625 Z M 18.125 12.164062 C 18.429688 12.164062 18.695312 12.164062 18.914062 12.148438 C 19.140625 12.132812 19.371094 12.09375 19.597656 11.984375 L 19.027344 10.785156 C 19.011719 10.792969 18.960938 10.8125 18.8125 10.824219 C 18.65625 10.835938 18.449219 10.835938 18.125 10.835938 Z M 19.285156 10.527344 C 19.230469 10.640625 19.140625 10.730469 19.027344 10.785156 L 19.597656 11.984375 C 19.988281 11.800781 20.300781 11.488281 20.484375 11.097656 Z M 16.875 7.164062 C 17.410156 7.164062 17.773438 7.164062 18.054688 7.1875 C 18.332031 7.207031 18.472656 7.246094 18.570312 7.292969 L 19.140625 6.089844 C 18.832031 5.945312 18.507812 5.886719 18.15625 5.859375 C 17.8125 5.835938 17.390625 5.835938 16.875 5.835938 Z M 20.664062 9.625 C 20.664062 9.109375 20.664062 8.6875 20.640625 8.34375 C 20.613281 7.992188 20.554688 7.667969 20.410156 7.359375 L 19.207031 7.929688 C 19.253906 8.027344 19.292969 8.167969 19.3125 8.445312 C 19.335938 8.726562 19.335938 9.089844 19.335938 9.625 Z M 18.570312 7.292969 C 18.851562 7.425781 19.074219 7.648438 19.207031 7.929688 L 20.410156 7.359375 C 20.144531 6.804688 19.695312 6.355469 19.140625 6.089844 Z M 7.125 5.835938 C 6.609375 5.835938 6.1875 5.835938 5.84375 5.859375 C 5.492188 5.886719 5.167969 5.945312 4.859375 6.089844 L 5.429688 7.292969 C 5.527344 7.246094 5.667969 7.207031 5.945312 7.1875 C 6.226562 7.164062 6.589844 7.164062 7.125 7.164062 Z M 4.664062 9.625 C 4.664062 9.089844 4.664062 8.726562 4.6875 8.445312 C 4.707031 8.167969 4.746094 8.027344 4.792969 7.929688 L 3.589844 7.359375 C 3.445312 7.667969 3.386719 7.992188 3.359375 8.34375 C 3.335938 8.6875 3.335938 9.109375 3.335938 9.625 Z M 4.859375 6.089844 C 4.304688 6.355469 3.855469 6.804688 3.589844 7.359375 L 4.792969 7.929688 C 4.925781 7.648438 5.148438 7.425781 5.429688 7.292969 Z M 4.859375 6.089844 "/>
<path fill-rule="nonzero" fill="rgb(0%, 0%, 0%)" fill-opacity="1" d="M 12 6.5 L 12 7.164062 L 12.664062 7.164062 L 12.664062 6.5 Z M 11.335938 4.5 L 11.335938 6.5 L 12.664062 6.5 L 12.664062 4.5 Z M 12 5.835938 L 10 5.835938 L 10 7.164062 L 12 7.164062 Z M 10 5.835938 C 9.261719 5.835938 8.664062 5.238281 8.664062 4.5 L 7.335938 4.5 C 7.335938 5.972656 8.527344 7.164062 10 7.164062 Z M 10 3.164062 C 10.738281 3.164062 11.335938 3.761719 11.335938 4.5 L 12.664062 4.5 C 12.664062 3.027344 11.472656 1.835938 10 1.835938 Z M 10 1.835938 C 8.527344 1.835938 7.335938 3.027344 7.335938 4.5 L 8.664062 4.5 C 8.664062 3.761719 9.261719 3.164062 10 3.164062 Z M 10 1.835938 "/>
<path fill-rule="nonzero" fill="rgb(0%, 0%, 0%)" fill-opacity="1" d="M 12 6.5 L 11.335938 6.5 L 11.335938 7.164062 L 12 7.164062 Z M 14 5.835938 L 12 5.835938 L 12 7.164062 L 14 7.164062 Z M 12.664062 6.5 L 12.664062 4.5 L 11.335938 4.5 L 11.335938 6.5 Z M 15.335938 4.5 C 15.335938 5.238281 14.738281 5.835938 14 5.835938 L 14 7.164062 C 15.472656 7.164062 16.664062 5.972656 16.664062 4.5 Z M 14 3.164062 C 14.738281 3.164062 15.335938 3.761719 15.335938 4.5 L 16.664062 4.5 C 16.664062 3.027344 15.472656 1.835938 14 1.835938 Z M 14 1.835938 C 12.527344 1.835938 11.335938 3.027344 11.335938 4.5 L 12.664062 4.5 C 12.664062 3.761719 13.261719 3.164062 14 3.164062 Z M 14 1.835938 "/>
<path fill-rule="nonzero" fill="rgb(0%, 0%, 0%)" fill-opacity="1" d="M 12.664062 17.5 C 12.664062 17.132812 12.367188 16.835938 12 16.835938 C 11.632812 16.835938 11.335938 17.132812 11.335938 17.5 Z M 11.335938 19.5 C 11.335938 19.867188 11.632812 20.164062 12 20.164062 C 12.367188 20.164062 12.664062 19.867188 12.664062 19.5 Z M 11.335938 17.5 L 11.335938 19.5 L 12.664062 19.5 L 12.664062 17.5 Z M 11.335938 17.5 "/>
<g mask="url(#mask-0)">
<use xlink:href="#source-6" transform="matrix(1, 0, 0, 1, 7, 8)"/>
</g>
</svg>
