<?xml version="1.0" encoding="UTF-8"?>
<svg xmlns="http://www.w3.org/2000/svg" xmlns:xlink="http://www.w3.org/1999/xlink" width="30" height="30" viewBox="0 0 30 30">
<path fill-rule="evenodd" fill="rgb(90.588379%, 67.843628%, 9.803772%)" fill-opacity="1" d="M 16.472656 6.972656 C 18.285156 5.164062 21.21875 5.164062 23.03125 6.972656 C 24.84375 8.785156 24.84375 11.722656 23.03125 13.53125 L 20.53125 16.03125 C 18.71875 17.84375 15.785156 17.84375 13.972656 16.03125 C 13.730469 15.792969 13.523438 15.53125 13.347656 15.257812 C 13.148438 14.949219 12.738281 14.859375 12.429688 15.058594 C 12.117188 15.257812 12.03125 15.667969 12.226562 15.976562 C 12.457031 16.332031 12.722656 16.664062 13.03125 16.972656 C 15.363281 19.304688 19.140625 19.304688 21.472656 16.972656 L 23.972656 14.472656 C 26.304688 12.144531 26.304688 8.363281 23.972656 6.03125 C 21.640625 3.703125 17.863281 3.703125 15.53125 6.03125 L 13.03125 8.53125 C 12.773438 8.792969 12.773438 9.214844 13.03125 9.472656 C 13.292969 9.734375 13.710938 9.734375 13.972656 9.472656 Z M 13.53125 23.03125 C 11.722656 24.84375 8.785156 24.84375 6.972656 23.03125 C 5.164062 21.222656 5.164062 18.285156 6.972656 16.472656 L 9.472656 13.972656 C 11.285156 12.164062 14.222656 12.164062 16.03125 13.972656 C 16.273438 14.214844 16.480469 14.472656 16.660156 14.75 C 16.855469 15.058594 17.269531 15.144531 17.578125 14.949219 C 17.886719 14.75 17.976562 14.335938 17.777344 14.027344 C 17.550781 13.675781 17.28125 13.339844 16.972656 13.03125 C 14.644531 10.703125 10.863281 10.703125 8.53125 13.03125 L 6.03125 15.53125 C 3.703125 17.863281 3.703125 21.644531 6.03125 23.972656 C 8.363281 26.304688 12.144531 26.304688 14.472656 23.972656 L 16.972656 21.472656 C 17.234375 21.214844 17.234375 20.792969 16.972656 20.53125 C 16.714844 20.273438 16.292969 20.273438 16.03125 20.53125 Z M 13.53125 23.03125 "/>
</svg>
