<?xml version="1.0" encoding="UTF-8"?>
<svg xmlns="http://www.w3.org/2000/svg" xmlns:xlink="http://www.w3.org/1999/xlink" width="24" height="24" viewBox="0 0 24 24">
<path fill-rule="evenodd" fill="rgb(0%, 0%, 0%)" fill-opacity="1" d="M 5.914062 9.75 C 5.914062 6.390625 8.640625 3.664062 12 3.664062 C 15.359375 3.664062 18.085938 6.390625 18.085938 9.75 C 18.085938 11.992188 16.980469 14.679688 15.582031 16.832031 C 14.886719 17.902344 14.140625 18.808594 13.464844 19.4375 C 13.125 19.753906 12.8125 19.984375 12.546875 20.136719 C 12.273438 20.292969 12.09375 20.335938 12 20.335938 C 11.90625 20.335938 11.726562 20.292969 11.453125 20.136719 C 11.1875 19.984375 10.875 19.753906 10.535156 19.4375 C 9.859375 18.808594 9.113281 17.902344 8.417969 16.832031 C 7.019531 14.679688 5.914062 11.992188 5.914062 9.75 Z M 12 2.335938 C 7.90625 2.335938 4.585938 5.65625 4.585938 9.75 C 4.585938 12.359375 5.835938 15.300781 7.300781 17.558594 C 8.039062 18.695312 8.855469 19.691406 9.632812 20.414062 C 10.019531 20.773438 10.414062 21.078125 10.796875 21.292969 C 11.167969 21.507812 11.582031 21.664062 12 21.664062 C 12.417969 21.664062 12.832031 21.507812 13.203125 21.292969 C 13.585938 21.078125 13.980469 20.773438 14.367188 20.414062 C 15.144531 19.691406 15.960938 18.695312 16.699219 17.558594 C 18.164062 15.300781 19.414062 12.359375 19.414062 9.75 C 19.414062 5.65625 16.09375 2.335938 12 2.335938 Z M 12 12.449219 C 13.492188 12.449219 14.699219 11.242188 14.699219 9.75 C 14.699219 8.257812 13.492188 7.050781 12 7.050781 C 10.507812 7.050781 9.300781 8.257812 9.300781 9.75 C 9.300781 11.242188 10.507812 12.449219 12 12.449219 Z M 12 12.449219 "/>
</svg>
