<?xml version="1.0" encoding="UTF-8"?>
<svg xmlns="http://www.w3.org/2000/svg" xmlns:xlink="http://www.w3.org/1999/xlink" width="12" height="16" viewBox="0 0 12 16">
<path fill-rule="evenodd" fill="rgb(0%, 0%, 0%)" fill-opacity="1" d="M 6 1.601562 C 4.011719 1.601562 2.398438 3.210938 2.398438 5.199219 L 2.398438 6.722656 C 2 6.953125 1.671875 7.296875 1.460938 7.710938 C 1.199219 8.222656 1.199219 8.894531 1.199219 10.238281 L 1.199219 10.558594 C 1.199219 11.902344 1.199219 12.574219 1.460938 13.089844 C 1.691406 13.542969 2.058594 13.910156 2.511719 14.136719 C 3.023438 14.398438 3.695312 14.398438 5.039062 14.398438 L 6.960938 14.398438 C 8.304688 14.398438 8.976562 14.398438 9.488281 14.136719 C 9.941406 13.910156 10.308594 13.542969 10.539062 13.089844 C 10.800781 12.574219 10.800781 11.902344 10.800781 10.558594 L 10.800781 10.238281 C 10.800781 8.894531 10.800781 8.222656 10.539062 7.710938 C 10.328125 7.296875 10 6.953125 9.601562 6.722656 L 9.601562 5.199219 C 9.601562 3.210938 7.988281 1.601562 6 1.601562 Z M 8 6.40625 L 8 5.199219 C 8 4.09375 7.105469 3.199219 6 3.199219 C 4.894531 3.199219 4 4.09375 4 5.199219 L 4 6.40625 C 4.296875 6.398438 4.636719 6.398438 5.039062 6.398438 L 6.960938 6.398438 C 7.363281 6.398438 7.703125 6.398438 8 6.40625 Z M 8 6.40625 "/>
</svg>
